<?xml version="1.0" encoding="UTF-8" standalone="no"?>
<svg width="12px" height="14px" viewBox="0 0 12 14" version="1.1" xmlns="http://www.w3.org/2000/svg" xmlns:xlink="http://www.w3.org/1999/xlink" xmlns:sketch="http://www.bohemiancoding.com/sketch/ns">
    <!-- Generator: Sketch 3.2.2 (9983) - http://www.bohemiancoding.com/sketch -->
    <title>icon-video</title>
    <desc>Created with Sketch.</desc>
    <defs></defs>
    <g id="/*-Exported-Assets-*/" stroke="none" stroke-width="1" fill="none" fill-rule="evenodd" sketch:type="MSPage">
        <g id="Artboard-1" sketch:type="MSArtboardGroup" transform="translate(-157.000000, -71.000000)" fill="#FFFFFF">
            <g id="icon-video" sketch:type="MSLayerGroup" transform="translate(157.000000, 71.000000)">
                <path d="M10,2.8 L11,2.8 L11,3.73333333 L10,3.73333333 L10,2.8 Z M10,4.66666667 L11,4.66666667 L11,5.6 L10,5.6 L10,4.66666667 Z M10,6.53333333 L11,6.53333333 L11,7.46666667 L10,7.46666667 L10,6.53333333 Z M10,8.4 L11,8.4 L11,9.33333333 L10,9.33333333 L10,8.4 Z M10,10.2666667 L11,10.2666667 L11,11.2 L10,11.2 L10,10.2666667 Z M10,12.1333333 L11,12.1333333 L11,13.0666667 L10,13.0666667 L10,12.1333333 Z M9,6.06666667 C9,6.32473333 8.776,6.53333333 8.5,6.53333333 L3.5,6.53333333 C3.224,6.53333333 3,6.32473333 3,6.06666667 L3,1.4 C3,1.1424 3.224,0.933333333 3.5,0.933333333 L8.5,0.933333333 C8.776,0.933333333 9,1.1424 9,1.4 L9,6.06666667 L9,6.06666667 Z M9,12.6 C9,12.8580667 8.776,13.0666667 8.5,13.0666667 L3.5,13.0666667 C3.224,13.0666667 3,12.8580667 3,12.6 L3,7.93333333 C3,7.67573333 3.224,7.46666667 3.5,7.46666667 L8.5,7.46666667 C8.776,7.46666667 9,7.67573333 9,7.93333333 L9,12.6 L9,12.6 Z M1,2.8 L2,2.8 L2,3.73333333 L1,3.73333333 L1,2.8 Z M1,4.66666667 L2,4.66666667 L2,5.6 L1,5.6 L1,4.66666667 Z M1,6.53333333 L2,6.53333333 L2,7.46666667 L1,7.46666667 L1,6.53333333 Z M1,8.4 L2,8.4 L2,9.33333333 L1,9.33333333 L1,8.4 Z M1,10.2666667 L2,10.2666667 L2,11.2 L1,11.2 L1,10.2666667 Z M1,12.1333333 L2,12.1333333 L2,13.0666667 L1,13.0666667 L1,12.1333333 Z M10,0 L2,0 C0.8955,0 0,0.8358 0,1.86666667 L0,14 L2,14 L10,14 L12,14 L12,1.86666667 C12,0.8358 11.1045,0 10,0 L10,0 Z" sketch:type="MSShapeGroup"></path>
            </g>
        </g>
    </g>
</svg>