<?xml version="1.0" encoding="UTF-8" standalone="no"?>
<svg width="11px" height="14px" viewBox="0 0 11 14" version="1.1" xmlns="http://www.w3.org/2000/svg" xmlns:xlink="http://www.w3.org/1999/xlink" xmlns:sketch="http://www.bohemiancoding.com/sketch/ns">
    <!-- Generator: Sketch 3.2.2 (9983) - http://www.bohemiancoding.com/sketch -->
    <title>icon-text</title>
    <desc>Created with Sketch.</desc>
    <defs></defs>
    <g id="/*-Exported-Assets-*/" stroke="none" stroke-width="1" fill="none" fill-rule="evenodd" sketch:type="MSPage">
        <g id="Artboard-1" sketch:type="MSArtboardGroup" transform="translate(-77.000000, -71.000000)" fill="#FFFFFF">
            <g id="icon-text" sketch:type="MSLayerGroup" transform="translate(77.000000, 71.000000)">
                <path d="M8.46153846,3.5 C7.99446154,3.5 7.61538462,3.108 7.61538462,2.625 L7.61538462,0.875 L10.1538462,3.5 L8.46153846,3.5 L8.46153846,3.5 Z M8.03846154,7.875 L2.96153846,7.875 C2.728,7.875 2.53846154,7.6794375 2.53846154,7.4375 C2.53846154,7.196 2.728,7 2.96153846,7 L8.03846154,7 C8.272,7 8.46153846,7.196 8.46153846,7.4375 C8.46153846,7.6794375 8.272,7.875 8.03846154,7.875 L8.03846154,7.875 Z M8.03846154,10.5 L2.96153846,10.5 C2.728,10.5 2.53846154,10.3044375 2.53846154,10.0625 C2.53846154,9.8205625 2.728,9.625 2.96153846,9.625 L8.03846154,9.625 C8.272,9.625 8.46153846,9.8205625 8.46153846,10.0625 C8.46153846,10.3044375 8.272,10.5 8.03846154,10.5 L8.03846154,10.5 Z M7.61538462,0.01225 C7.56123077,0.01225 1.69230769,0 1.69230769,0 C0.757730769,0 0,0.7835625 0,1.75 L0,12.25 C0,13.2164375 0.757730769,14 1.69230769,14 L9.30769231,14 C10.2422692,14 11,13.2164375 11,12.25 L11,3.5 L7.61538462,0.01225 L7.61538462,0.01225 Z" id="Fill-221" sketch:type="MSShapeGroup"></path>
            </g>
        </g>
    </g>
</svg>