<?xml version="1.0" encoding="UTF-8" standalone="no"?>
<svg width="320px" height="210px" viewBox="0 0 320 210" version="1.1" xmlns="http://www.w3.org/2000/svg" xmlns:xlink="http://www.w3.org/1999/xlink" xmlns:sketch="http://www.bohemiancoding.com/sketch/ns">
    <!-- Generator: Sketch 3.2.2 (9983) - http://www.bohemiancoding.com/sketch -->
    <title>placeholder-audio</title>
    <desc>Created with Sketch.</desc>
    <defs>
        <rect id="path-1" x="0" y="0" width="320" height="210"></rect>
    </defs>
    <g id="/*-Exported-Assets-*/" stroke="none" stroke-width="1" fill="none" fill-rule="evenodd" sketch:type="MSPage">
        <g id="Artboard-1" sketch:type="MSArtboardGroup" transform="translate(-66.000000, -239.000000)">
            <g id="placeholder-audio" sketch:type="MSLayerGroup" transform="translate(66.000000, 239.000000)">
                <mask id="mask-2" sketch:name="Rectangle 71" fill="white">
                    <use xlink:href="#path-1"></use>
                </mask>
                <use id="Rectangle-71" fill="#7EACD8" sketch:type="MSShapeGroup" xlink:href="#path-1"></use>
                <path d="M241.079062,101.949531 C241.240938,99.9954687 241.4375,98.0471875 241.4375,96.046875 C241.4375,52.941875 205.200625,18 160.5,18 C115.799375,18 79.5625,52.941875 79.5625,96.046875 C79.5625,98.0471875 79.7590625,99.9954687 79.9267187,101.949531 C72.8446875,105.903906 68,113.379062 68,122.0625 L68,156.75 C68,169.520781 78.3542187,179.875 91.125,179.875 L114.25,179.875 C126.535156,179.325781 137.375,169.168125 137.375,156.75 L137.375,122.0625 C137.375,109.291719 127.020781,98.9375 114.25,98.9375 L91.125,98.9375 C91.125,58.5265625 122.187656,29.5625 160.5,29.5625 C198.818125,29.5625 230.123594,58.2779687 229.875,98.9375 C229.869219,99.9203125 206.75,98.9375 206.75,98.9375 C193.979219,98.9375 183.625,109.291719 183.625,122.0625 L183.625,156.75 C183.625,169.168125 194.464844,179.325781 206.75,179.875 L218.3125,179.875 L218.3125,197.21875 C218.3125,200.415781 220.896719,203 224.09375,203 C227.290781,203 229.875,200.415781 229.875,197.21875 L229.875,179.875 C242.645781,179.875 253,169.520781 253,156.75 L253,122.0625 C253,113.379062 248.155313,105.903906 241.079062,101.949531" id="icon-audio-2" opacity="0.2" fill="#3C7BB7" sketch:type="MSShapeGroup" mask="url(#mask-2)"></path>
            </g>
            <g id="button-play" sketch:type="MSLayerGroup" transform="translate(208.000000, 317.000000)" fill="#FFFFFF">
                <path d="M41.8842175,24.7493049 L5.61271645,1.37340414 C3.46090397,0.214442143 0.995961728,0.334729797 0.995961728,4.49515517 L0.995961728,50.5252308 C0.995961728,54.3286119 3.64038079,54.9281408 5.61271645,53.6469818 L41.8842175,30.2710811 C43.3773119,28.7455281 43.3773119,26.2748579 41.8842175,24.7493049" sketch:type="MSShapeGroup"></path>
            </g>
        </g>
    </g>
</svg>