<?xml version="1.0" encoding="UTF-8" standalone="no"?>
<svg width="14px" height="14px" viewBox="0 0 14 14" version="1.1" xmlns="http://www.w3.org/2000/svg" xmlns:xlink="http://www.w3.org/1999/xlink" xmlns:sketch="http://www.bohemiancoding.com/sketch/ns">
    <!-- Generator: Sketch 3.2.2 (9983) - http://www.bohemiancoding.com/sketch -->
    <title>icon-audio</title>
    <desc>Created with Sketch.</desc>
    <defs></defs>
    <g id="/*-Exported-Assets-*/" stroke="none" stroke-width="1" fill="none" fill-rule="evenodd" sketch:type="MSPage">
        <g id="Artboard-1" sketch:type="MSArtboardGroup" transform="translate(-234.000000, -71.000000)" fill="#FFFFFF">
            <g id="icon-audio" sketch:type="MSLayerGroup" transform="translate(234.000000, 71.000000)">
                <path d="M13.097875,6.3529375 C13.110125,6.2050625 13.125,6.057625 13.125,5.90625 C13.125,2.64425 10.38275,0 7,0 C3.61725,0 0.875,2.64425 0.875,5.90625 C0.875,6.057625 0.889875,6.2050625 0.9025625,6.3529375 C0.366625,6.6521875 0,7.217875 0,7.875 L0,10.5 C0,11.4664375 0.7835625,12.25 1.75,12.25 L3.5,12.25 C4.4296875,12.2084375 5.25,11.43975 5.25,10.5 L5.25,7.875 C5.25,6.9085625 4.4664375,6.125 3.5,6.125 L1.75,6.125 C1.75,3.066875 4.1006875,0.875 7,0.875 C9.89975,0.875 12.2688125,3.0480625 12.25,6.125 C12.2495625,6.199375 10.5,6.125 10.5,6.125 C9.5335625,6.125 8.75,6.9085625 8.75,7.875 L8.75,10.5 C8.75,11.43975 9.5703125,12.2084375 10.5,12.25 L11.375,12.25 L11.375,13.5625 C11.375,13.8044375 11.5705625,14 11.8125,14 C12.0544375,14 12.25,13.8044375 12.25,13.5625 L12.25,12.25 C13.2164375,12.25 14,11.4664375 14,10.5 L14,7.875 C14,7.217875 13.633375,6.6521875 13.097875,6.3529375" sketch:type="MSShapeGroup"></path>
            </g>
        </g>
    </g>
</svg>