<?xml version="1.0" encoding="UTF-8" standalone="no"?>
<svg width="12px" height="12px" viewBox="0 0 12 12" version="1.1" xmlns="http://www.w3.org/2000/svg" xmlns:xlink="http://www.w3.org/1999/xlink" xmlns:sketch="http://www.bohemiancoding.com/sketch/ns">
    <!-- Generator: Sketch 3.2.2 (9983) - http://www.bohemiancoding.com/sketch -->
    <title>icon-info</title>
    <desc>Created with Sketch.</desc>
    <defs></defs>
    <g id="/*-Exported-Assets-*/" stroke="none" stroke-width="1" fill="none" fill-rule="evenodd" sketch:type="MSPage">
        <g id="Artboard-1" sketch:type="MSArtboardGroup" transform="translate(-386.000000, -71.000000)" fill="#FFFFFF">
            <g id="icon-info" sketch:type="MSLayerGroup" transform="translate(386.000000, 71.000000)">
                <path d="M0,6 C0,9.315 2.685,12 6,12 C9.315,12 12,9.315 12,6 C12,2.685 9.315,0 6,0 C2.685,0 0,2.685 0,6 Z M5.10507859,5.54606904 L5.10507859,8.23083327 L4.21015718,8.23083327 L4.21015718,9.12575468 L5.10507859,9.12575468 L6.89492141,9.12575468 L7.78984282,9.12575468 L7.78984282,8.23083327 L6.89492141,8.23083327 L6.89492141,5.54606904 L6.89492141,4.65114763 L5.10507859,4.65114763 L4.21015718,4.65114763 L4.21015718,5.54606904 L5.10507859,5.54606904 Z M5.10507859,1.9663834 L5.10507859,3.75622622 L6.89492141,3.75622622 L6.89492141,1.9663834 L5.10507859,1.9663834 Z" id="Shape" sketch:type="MSShapeGroup"></path>
            </g>
        </g>
    </g>
</svg>