<?xml version="1.0" encoding="UTF-8" standalone="no"?>
<svg width="12px" height="12px" viewBox="0 0 12 12" version="1.1" xmlns="http://www.w3.org/2000/svg" xmlns:xlink="http://www.w3.org/1999/xlink" xmlns:sketch="http://www.bohemiancoding.com/sketch/ns">
    <!-- Generator: Sketch 3.2.2 (9983) - http://www.bohemiancoding.com/sketch -->
    <title>icon-picture</title>
    <desc>Created with Sketch.</desc>
    <defs></defs>
    <g id="/*-Exported-Assets-*/" stroke="none" stroke-width="1" fill="none" fill-rule="evenodd" sketch:type="MSPage">
        <g id="Artboard-1" sketch:type="MSArtboardGroup" transform="translate(-317.000000, -72.000000)" fill="#FFFFFF">
            <g id="icon-picture" sketch:type="MSLayerGroup" transform="translate(317.000000, 72.000000)">
                <path d="M11.25,10.5 C11.25,10.914 10.914,11.25 10.5,11.25 L8.562,11.25 L5.799,8.450625 L9,5.249625 L11.25,7.499625 L11.25,10.5 L11.25,10.5 Z M1.5,11.25 C1.086,11.25 0.75,10.914 0.75,10.5 L0.75,10.147875 L3.729375,7.479375 L7.500375,11.25 L1.5,11.25 L1.5,11.25 Z M3,1.5 C3.828375,1.5 4.5,2.171625 4.5,3 C4.5,3.828375 3.828375,4.5 3,4.5 C2.171625,4.5 1.5,3.828375 1.5,3 C1.5,2.171625 2.171625,1.5 3,1.5 L3,1.5 Z M10.5,0 L1.5,0 C0.671625,0 0,0.671625 0,1.5 L0,10.5 C0,11.328375 0.671625,12 1.5,12 L10.5,12 C11.328375,12 12,11.328375 12,10.5 L12,1.5 C12,0.671625 11.328375,0 10.5,0 L10.5,0 Z M3,3.75 C3.414,3.75 3.75,3.414 3.75,3 C3.75,2.586 3.414,2.25 3,2.25 C2.586,2.25 2.25,2.586 2.25,3 C2.25,3.414 2.586,3.75 3,3.75 L3,3.75 Z" id="icon-images" sketch:type="MSShapeGroup"></path>
            </g>
        </g>
    </g>
</svg>